<svg xmlns="http://www.w3.org/2000/svg" xmlns:xlink="http://www.w3.org/1999/xlink" version="1.1" x="0px" y="0px" viewBox="0 0 90 112.5" enable-background="new 0 0 90 90" xml:space="preserve"><g><path fill="#000000" d="M81.012,64.562c-0.747,0.999-3.806,0.724-5.273,0.592c-0.319-0.029-0.597-0.053-0.818-0.066   c-0.535-0.032-1.071-0.067-1.607-0.104c-2.643-0.181-5.378-0.366-8.074,0.139l-0.479,0.09c-2.729,0.516-5.307,1.004-8.03,0.562   c-0.891-0.144-1.796-0.346-2.675-0.541c-2.085-0.462-4.239-0.941-6.475-0.738c-0.079,0.008-7.906,0.856-10.884,1.339   c-2.723,0.444-5.299-0.044-8.026-0.561l-0.484-0.091c-2.695-0.504-5.428-0.319-8.073-0.138c-0.535,0.036-1.071,0.073-1.606,0.104   c-0.222,0.015-0.503,0.038-0.82,0.066c-1.47,0.133-4.527,0.405-5.273-0.591c-0.162-0.215-0.465-0.258-0.68-0.097   c-0.214,0.16-0.258,0.464-0.098,0.682c1.073,1.426,4.12,1.154,6.137,0.973c0.307-0.027,0.576-0.051,0.791-0.064   c0.538-0.029,1.078-0.066,1.617-0.104c2.583-0.177,5.253-0.358,7.826,0.124l0.483,0.091c2.027,0.384,3.974,0.752,5.985,0.752   c0.779,0,1.569-0.055,2.376-0.187c2.953-0.479,10.754-1.323,10.823-1.331c2.078-0.189,4.064,0.253,6.169,0.72   c0.894,0.197,1.812,0.402,2.73,0.553c2.895,0.469,5.549-0.035,8.365-0.566l0.479-0.091c2.574-0.483,5.245-0.302,7.829-0.123   c0.54,0.037,1.078,0.072,1.615,0.104c0.215,0.012,0.482,0.035,0.788,0.063c2.017,0.182,5.066,0.454,6.139-0.976   c0.159-0.214,0.117-0.519-0.098-0.679C81.478,64.303,81.174,64.348,81.012,64.562z"/><path fill="#000000" d="M90.038,36.075c-0.178-0.342-0.551-0.457-0.846-0.42c-0.111,0.015-0.215,0.067-0.292,0.15l-1.068,1.14   c0.018-0.193-0.084-0.379-0.26-0.47c-0.195-0.103-0.438-0.059-0.586,0.107l-2.332,2.596c-0.11,0.123-0.151,0.295-0.107,0.455   l0.181,0.639L72.209,52.497l-2.736-1.008l1.003-2.464c1.847-0.293,3.549-1.72,4.387-3.779l0.002-0.001c0-0.001,0-0.003,0-0.003   c0.003-0.002,0.003-0.002,0.003-0.004c0-0.001,0-0.002,0-0.002c1.161-2.917,0.118-6.101-2.333-7.1   c-0.499-0.204-1.028-0.307-1.575-0.307c-2.09,0-4.123,1.513-5.057,3.764c-0.002,0.003,0,0.005-0.001,0.008   c-0.004,0.01-0.015,0.021-0.018,0.031c-0.574,1.406-0.656,2.917-0.235,4.255c0.174,0.551,0.442,1.031,0.76,1.459l-1.014,2.489   l-2.897-1.296l-0.411-17.493l0.575-0.331c0.142-0.083,0.234-0.235,0.24-0.401l0.145-3.488c0.01-0.221-0.132-0.42-0.343-0.485   c-0.189-0.058-0.392,0.006-0.519,0.156l0.034-1.563c0.003-0.113-0.035-0.222-0.104-0.311c-0.182-0.231-0.531-0.41-0.898-0.289   c-0.146,0.048-0.296,0.137-0.439,0.317c-0.065-0.243-0.175-0.394-0.301-0.499c-0.296-0.249-0.686-0.213-0.942-0.065   c-0.099,0.057-0.174,0.145-0.213,0.25l-0.548,1.463c-0.058-0.184-0.224-0.318-0.421-0.335c-0.216-0.021-0.424,0.114-0.499,0.323   l-1.158,3.292c-0.057,0.157-0.026,0.331,0.075,0.462l0.411,0.521l-6.863,16.096l-2.915,0.119l-0.02-2.663   c1.538-0.952,2.587-2.855,2.599-5.057c0.009-0.036,0.022-0.07,0.022-0.109c0-0.052-0.008-0.101-0.022-0.147   c-0.104-3.062-2.255-5.527-4.875-5.527c-2.649,0.019-4.801,2.593-4.797,5.739c0,0.002,0.002,0.003,0.002,0.006   c0,0.012-0.005,0.025-0.005,0.035c0.016,2.223,1.105,4.148,2.677,5.092l0.02,2.672l-3.17-0.083l-7.098-15.994l0.402-0.527   c0.101-0.131,0.128-0.306,0.071-0.462l-1.204-3.277c-0.077-0.208-0.285-0.336-0.505-0.316c-0.197,0.02-0.36,0.159-0.417,0.343   l-0.57-1.456c-0.042-0.104-0.119-0.192-0.216-0.246c-0.258-0.144-0.648-0.175-0.94,0.078c-0.118,0.101-0.222,0.24-0.285,0.461   c-0.154-0.199-0.313-0.295-0.469-0.345c-0.371-0.117-0.715,0.069-0.895,0.302c-0.069,0.089-0.103,0.201-0.099,0.313l0.053,1.56   c-0.124-0.146-0.327-0.206-0.517-0.146c-0.211,0.067-0.349,0.268-0.338,0.489l0.195,3.486c0.009,0.167,0.103,0.316,0.248,0.396   l0.579,0.324L27.672,48.72l-2.646,1.229l-1.049-2.471c1.035-1.452,1.282-3.565,0.479-5.589c-0.006-0.106-0.042-0.206-0.104-0.283   c-0.973-2.144-2.967-3.575-4.998-3.575c-0.568,0-1.117,0.111-1.633,0.331c-2.438,1.035-3.437,4.238-2.227,7.143   c0.002,0,0.003,0.001,0.004,0.002c0.003,0.011,0.005,0.026,0.009,0.037c0.849,2,2.577,3.404,4.428,3.672l1.044,2.459l-2.96,1.141   L5.326,40.771l0.17-0.642c0.042-0.161,0-0.332-0.112-0.454l-2.373-2.562c-0.15-0.162-0.392-0.203-0.587-0.097   c-0.174,0.093-0.271,0.28-0.253,0.473l-1.083-1.123c-0.078-0.082-0.183-0.132-0.293-0.145c-0.291-0.038-0.667,0.086-0.84,0.433   c-0.278,0.557-0.121,1.594,3.222,5.122l2.192,2.032c2.067,1.917,5.997,6.228,8.599,9.08c1.403,1.539,2.417,2.65,2.77,2.99   c1.409,1.35,3.021,3.025,3.206,3.422c0.029,0.147,0.127,0.262,0.252,0.329c0.027,0.525-0.011,0.833-0.013,0.843   c-0.013,0.088-0.001,0.179,0.034,0.262c0.074,0.173,0.179,0.332,0.284,0.487c-0.474,0.031-0.948,0.063-1.42,0.092   c-0.223,0.013-0.502,0.038-0.822,0.066c-1.468,0.131-4.525,0.407-5.272-0.593c-0.163-0.213-0.467-0.259-0.681-0.097   c-0.215,0.161-0.259,0.466-0.097,0.682c1.071,1.43,4.12,1.156,6.137,0.976c0.306-0.028,0.576-0.052,0.789-0.065   c0.539-0.031,1.077-0.066,1.616-0.104c2.583-0.176,5.254-0.358,7.828,0.123l0.48,0.092c2.028,0.384,3.977,0.75,5.988,0.75   c0.779,0,1.569-0.055,2.375-0.185c0.918-0.149,1.837-0.354,2.729-0.55c2.104-0.469,8.096-0.781,8.096-0.781   c2.079-0.188,4.064,0.253,6.169,0.721c0.89,0.197,1.812,0.4,2.73,0.551c2.89,0.469,5.549-0.033,8.364-0.566l0.478-0.089   c2.575-0.485,5.248-0.303,7.83-0.126c0.539,0.037,1.078,0.074,1.617,0.104c0.213,0.014,0.481,0.039,0.787,0.066   c2.018,0.181,5.066,0.454,6.139-0.975c0.16-0.217,0.117-0.521-0.098-0.682s-0.521-0.117-0.68,0.097   c-0.746,0.999-3.805,0.723-5.274,0.591c-0.318-0.027-0.598-0.052-0.817-0.065c-0.537-0.03-1.072-0.067-1.606-0.105   c-1.232-0.081-2.482-0.166-3.737-0.182c0.083-0.136,0.163-0.271,0.226-0.422c0.032-0.081,0.043-0.173,0.027-0.263   c-0.002-0.012-0.074-0.499,0.004-1.309c0.231-0.443,1.771-2.09,3.134-3.432c0.347-0.343,1.339-1.465,2.714-3.018   c2.563-2.894,6.436-7.267,8.476-9.214l2.226-2.126C90.182,37.669,90.325,36.629,90.038,36.075z M16.538,45.452   c-0.027-0.057-0.062-0.107-0.086-0.166c0.018-0.076,0.039-0.151,0.062-0.225c0.024-0.087,0.046-0.177,0.076-0.26   c0.032-0.094,0.073-0.183,0.11-0.272c0.035-0.082,0.067-0.166,0.107-0.246c0.043-0.088,0.095-0.173,0.146-0.258   c0.044-0.076,0.084-0.153,0.134-0.228c0.056-0.084,0.117-0.162,0.178-0.242c0.051-0.069,0.1-0.141,0.158-0.208   c0.067-0.08,0.142-0.153,0.213-0.227c0.059-0.063,0.114-0.125,0.175-0.183c0.08-0.074,0.168-0.144,0.254-0.213   c0.062-0.05,0.12-0.104,0.186-0.152c0.099-0.074,0.205-0.138,0.311-0.204c0.058-0.037,0.113-0.078,0.175-0.113   c0.168-0.096,0.344-0.184,0.526-0.26c0.179-0.077,0.362-0.142,0.548-0.195c0.074-0.022,0.149-0.034,0.224-0.052   c0.114-0.026,0.225-0.057,0.34-0.076c0.083-0.014,0.164-0.018,0.246-0.027c0.109-0.013,0.216-0.028,0.325-0.033   c0.081-0.004,0.161,0,0.241,0c0.11,0,0.22-0.002,0.329,0.005c0.078,0.005,0.153,0.018,0.23,0.026   c0.111,0.014,0.223,0.025,0.331,0.044c0.075,0.015,0.148,0.037,0.222,0.054c0.109,0.025,0.218,0.051,0.323,0.084   c0.075,0.022,0.145,0.053,0.218,0.08c0.103,0.038,0.205,0.076,0.304,0.121c0.073,0.034,0.144,0.073,0.214,0.111   c0.074,0.039,0.147,0.078,0.216,0.12c0.024,0.061,0.036,0.123,0.058,0.184l-0.357,0.151c-0.339-0.057-0.785,0.005-1.239,0.197   c-0.453,0.193-0.807,0.473-1.003,0.755l-1.888,0.801c-0.338-0.055-0.786,0.004-1.239,0.197c-0.455,0.192-0.809,0.472-1.004,0.756   L16.538,45.452z M20.576,48.302c-1.337,0-2.651-0.787-3.534-2.009l0.153-0.065c0.347,0.091,0.848,0.039,1.351-0.178   c0.504-0.213,0.892-0.535,1.067-0.849l1.712-0.726c0.347,0.092,0.848,0.037,1.352-0.177c0.505-0.214,0.891-0.535,1.067-0.849   l0.143-0.062c0.359,2.026-0.427,3.971-2.056,4.66C21.436,48.216,21.014,48.302,20.576,48.302z M17.408,55.178   c-0.328-0.315-1.385-1.476-2.724-2.944c-2.611-2.863-6.56-7.193-8.657-9.137L3.819,41.05c-1.518-1.604-2.265-2.591-2.633-3.183   l1.53,1.587c0.152,0.157,0.393,0.195,0.584,0.087c0.153-0.084,0.247-0.245,0.251-0.414l0.937,1.013l-0.176,0.661   c-0.044,0.172,0.007,0.354,0.136,0.477L17.572,53.73c0.138,0.129,0.335,0.169,0.51,0.102l0.008-0.004l0.028,0.194   c0.01,0.075,0.039,0.147,0.082,0.208c0.873,1.259,1.37,2.436,1.651,3.42C19.334,57.076,18.568,56.288,17.408,55.178z    M24.577,54.523c-1.856,0.782-4.014,0.313-5.403-1.112l2.978-1.147c0.249-0.095,0.375-0.377,0.278-0.626   c-0.084-0.222-0.313-0.335-0.536-0.293l-0.897-2.114c0.418-0.042,0.828-0.125,1.213-0.289c0.393-0.166,0.733-0.404,1.048-0.674   l0.887,2.091l-0.149,0.07c-0.243,0.114-0.349,0.402-0.235,0.645c0.113,0.245,0.401,0.35,0.644,0.234l3.135-1.457   C27.605,51.848,26.437,53.733,24.577,54.523z M50.97,47.308l-0.074-0.264c0.084-0.052,0.155-0.123,0.194-0.217l7.099-16.643   c0.068-0.164,0.044-0.353-0.063-0.491l-0.426-0.539l0.457-1.3c0.072,0.154,0.22,0.265,0.396,0.281   c0.216,0.019,0.425-0.106,0.501-0.313l0.777-2.068c-0.102,0.686-0.393,1.88-1.142,3.941l-1.228,2.787   c-1.152,2.615-3.056,8.158-4.316,11.826c-0.644,1.877-1.151,3.359-1.328,3.779c-0.474,1.122-0.812,1.988-1.058,2.661   c-0.065-0.905-0.028-1.983,0.22-3.218C50.992,47.458,50.989,47.381,50.97,47.308z M41.284,38.674   c0.046-0.063,0.094-0.125,0.141-0.185c0.056-0.068,0.109-0.139,0.168-0.205c0.065-0.074,0.138-0.141,0.208-0.209   c0.063-0.062,0.125-0.125,0.192-0.184c0.075-0.064,0.153-0.121,0.23-0.179c0.073-0.055,0.142-0.112,0.217-0.162   c0.081-0.054,0.167-0.101,0.25-0.15c0.079-0.046,0.154-0.095,0.235-0.136c0.089-0.045,0.182-0.081,0.274-0.122   c0.083-0.036,0.163-0.075,0.249-0.106c0.097-0.036,0.198-0.063,0.301-0.093c0.083-0.025,0.164-0.055,0.25-0.075   c0.117-0.027,0.238-0.045,0.356-0.065c0.074-0.013,0.146-0.031,0.222-0.04c0.195-0.024,0.394-0.038,0.596-0.039   c0.196,0,0.39,0.012,0.581,0.034c0.065,0.008,0.126,0.022,0.19,0.032c0.125,0.02,0.251,0.038,0.373,0.067   c0.075,0.017,0.145,0.042,0.218,0.063c0.109,0.033,0.22,0.061,0.326,0.1c0.075,0.027,0.146,0.061,0.219,0.092   c0.099,0.04,0.2,0.081,0.297,0.13c0.072,0.036,0.142,0.08,0.211,0.118c0.091,0.053,0.185,0.102,0.271,0.16   c0.07,0.045,0.133,0.097,0.199,0.146c0.085,0.061,0.169,0.121,0.248,0.188c0.063,0.053,0.121,0.112,0.18,0.168   c0.076,0.072,0.152,0.142,0.222,0.219c0.056,0.06,0.105,0.125,0.159,0.187c0.05,0.063,0.104,0.128,0.151,0.195   c0,0.064-0.014,0.126-0.017,0.19l-0.391,0.003c-0.29-0.181-0.726-0.297-1.219-0.294c-0.491,0.005-0.926,0.126-1.215,0.313   l-2.049,0.015c-0.293-0.181-0.728-0.298-1.221-0.293c-0.493,0.002-0.927,0.126-1.215,0.312l-0.385,0.002   C41.301,38.805,41.286,38.743,41.284,38.674z M41.453,39.841l0.147,0c0.287,0.216,0.768,0.358,1.316,0.354   c0.547-0.004,1.028-0.152,1.31-0.374l1.858-0.014c0.285,0.219,0.77,0.36,1.317,0.356c0.549-0.004,1.028-0.152,1.31-0.375   l0.155-0.001c-0.443,2.008-1.917,3.5-3.685,3.515l-0.024,0.484v-0.484C43.41,43.302,41.932,41.846,41.453,39.841z M30.833,28.027   c0.08,0.204,0.285,0.325,0.503,0.306c0.176-0.02,0.324-0.132,0.393-0.288l0.476,1.295l-0.415,0.542   c-0.109,0.141-0.131,0.33-0.059,0.492l7.339,16.538c0.075,0.173,0.243,0.283,0.431,0.288h0.009l-0.05,0.19   c-0.02,0.073-0.021,0.15-0.005,0.225c0.322,1.496,0.33,2.772,0.212,3.792c-0.257-0.729-0.661-1.753-1.304-3.223   c-0.183-0.418-0.713-1.892-1.384-3.758c-1.313-3.65-3.297-9.164-4.487-11.765l-1.253-2.738c-0.785-2.062-1.097-3.26-1.209-3.948   L30.833,28.027z M28.808,49.731c-0.016-0.076-0.048-0.146-0.094-0.204l-0.17-0.218c0.057-0.08,0.096-0.172,0.097-0.275   l0.164-18.091c0.001-0.178-0.094-0.342-0.249-0.429l-0.597-0.333l-0.078-1.376c0.125,0.116,0.305,0.159,0.474,0.107   c0.208-0.065,0.35-0.262,0.342-0.481l-0.078-2.207c0.17,0.672,0.361,1.887,0.461,4.078l-0.063,3.042   c-0.06,2.861,0.311,8.712,0.556,12.585c0.127,1.976,0.226,3.538,0.224,3.99c-0.005,1.22,0.013,2.15,0.045,2.866   C29.433,51.973,29.053,50.963,28.808,49.731z M39.938,61.459c-0.875,0.195-1.781,0.396-2.67,0.54   c-1.502,0.244-2.959,0.199-4.422,0.028l-0.883-3.753c-0.001-0.013-0.011-0.021-0.016-0.035c0.054-0.098,0.114-0.193,0.155-0.298   c0.294-0.726,0.287-1.523-0.019-2.243c-0.037-0.084-0.093-0.155-0.167-0.207c-0.01-0.006-0.407-0.3-0.925-0.926   c-0.15-0.478-0.233-2.729-0.224-4.642c0-0.486-0.094-1.983-0.226-4.058c-0.245-3.855-0.614-9.683-0.554-12.502l0.061-3.076   c-0.014-0.327-0.031-0.631-0.05-0.922c0.105,0.295,0.219,0.601,0.345,0.933l1.265,2.768c1.174,2.562,3.149,8.055,4.457,11.688   c0.704,1.958,1.213,3.372,1.407,3.82c0.784,1.788,1.629,3.954,1.648,4.391c-0.03,0.148,0.016,0.29,0.105,0.4   c-0.174,0.495-0.329,0.766-0.335,0.772c-0.045,0.078-0.069,0.166-0.068,0.255c0.006,0.782,0.315,1.517,0.873,2.067   c0.08,0.076,0.168,0.139,0.253,0.206c0.002,0.015-0.002,0.028,0,0.043l0.801,4.569C40.477,61.338,40.207,61.398,39.938,61.459z    M45.235,50.333c-2.029,0.005-3.832-1.252-4.567-3.1l3.191,0.084c0.264,0.01,0.49-0.204,0.498-0.473   c0.006-0.236-0.16-0.429-0.383-0.478l-0.017-2.282c0.385,0.118,0.786,0.187,1.2,0.187c0.001,0,0.029,0,0.029,0   c0.426-0.003,0.836-0.078,1.229-0.204l0.016,2.254l-0.165,0.008c-0.267,0.009-0.475,0.235-0.464,0.504   c0.01,0.269,0.228,0.487,0.505,0.467l3.454-0.143C49.056,49.025,47.256,50.316,45.235,50.333z M59.589,45.715   c-0.102,2.084-0.175,3.589-0.167,4.077c0.037,1.953-0.015,4.278-0.165,4.688c-0.083,0.121-0.096,0.268-0.058,0.403   c-0.346,0.383-0.598,0.588-0.605,0.592c-0.07,0.054-0.128,0.125-0.162,0.208c-0.348,0.857-0.248,1.779,0.17,2.529   c-0.005,0.014-0.015,0.025-0.02,0.041l-0.836,3.739c-0.149-0.017-0.296-0.028-0.447-0.053c-0.889-0.146-1.796-0.346-2.672-0.541   c-1.52-0.339-3.075-0.68-4.659-0.767l0.644-4.001c0.001-0.012-0.003-0.023-0.002-0.037c0.088-0.07,0.179-0.133,0.259-0.215   c0.55-0.558,0.848-1.297,0.842-2.079c0-0.092-0.027-0.179-0.075-0.254c-0.005-0.01-0.26-0.433-0.497-1.211   c0.042-0.491,0.831-2.605,1.574-4.371c0.189-0.45,0.677-1.872,1.353-3.84c1.254-3.653,3.149-9.172,4.285-11.751l1.239-2.816   c0.111-0.307,0.211-0.595,0.307-0.87c-0.016,0.313-0.03,0.639-0.042,0.993l0.107,3.042C60.061,36.035,59.778,41.861,59.589,45.715z    M61.942,30.01l-0.593,0.342c-0.152,0.088-0.247,0.254-0.241,0.431l0.426,18.088c0.005,0.187,0.115,0.354,0.287,0.43l0.008,0.006   l-0.117,0.155c-0.046,0.061-0.079,0.131-0.092,0.206c-0.276,1.505-0.759,2.685-1.259,3.577c0.043-0.771,0.063-1.868,0.031-3.47   c-0.007-0.458,0.068-2.027,0.167-4.014c0.188-3.871,0.474-9.72,0.371-12.575l-0.105-3.009c0.067-2.206,0.238-3.431,0.399-4.11   l-0.046,2.203c-0.003,0.218,0.14,0.414,0.35,0.476c0.17,0.051,0.348,0.003,0.473-0.115L61.942,30.01z M66.741,42.115   c0.072-0.045,0.146-0.086,0.218-0.126c0.07-0.036,0.135-0.075,0.205-0.107c0.104-0.049,0.213-0.091,0.321-0.132   c0.064-0.025,0.129-0.052,0.195-0.076c0.114-0.037,0.23-0.067,0.35-0.096c0.063-0.017,0.127-0.036,0.191-0.049   c0.122-0.024,0.247-0.04,0.369-0.055c0.063-0.007,0.128-0.02,0.191-0.026c0.125-0.01,0.25-0.01,0.376-0.01   c0.064-0.001,0.13-0.006,0.194-0.004c0.129,0.004,0.258,0.02,0.387,0.034c0.062,0.008,0.124,0.008,0.185,0.018   c0.139,0.021,0.274,0.052,0.412,0.086c0.051,0.013,0.104,0.019,0.154,0.034c0.188,0.052,0.375,0.113,0.556,0.188   c0.183,0.074,0.361,0.16,0.53,0.253c0.06,0.032,0.113,0.071,0.17,0.107c0.108,0.064,0.217,0.128,0.318,0.2   c0.064,0.045,0.121,0.098,0.183,0.147c0.089,0.069,0.179,0.136,0.263,0.212c0.061,0.054,0.114,0.115,0.172,0.174   c0.075,0.076,0.153,0.15,0.223,0.23c0.055,0.063,0.104,0.134,0.156,0.2c0.063,0.081,0.127,0.16,0.186,0.245   c0.051,0.07,0.089,0.145,0.133,0.219c0.055,0.086,0.108,0.173,0.153,0.264c0.04,0.076,0.073,0.155,0.106,0.234   c0.043,0.091,0.085,0.183,0.119,0.279c0.029,0.082,0.054,0.166,0.08,0.25c0.023,0.076,0.045,0.152,0.065,0.229   c-0.026,0.061-0.061,0.115-0.088,0.172l-0.364-0.147c-0.197-0.28-0.556-0.555-1.013-0.742c-0.456-0.184-0.903-0.238-1.24-0.177   l-1.902-0.775c-0.198-0.279-0.556-0.553-1.013-0.738c-0.455-0.187-0.903-0.239-1.24-0.18l-0.357-0.146   C66.708,42.24,66.717,42.177,66.741,42.115z M66.445,43.253l0.143,0.059c0.179,0.31,0.57,0.626,1.077,0.832   c0.51,0.208,1.01,0.256,1.356,0.159l1.721,0.702c0.179,0.309,0.572,0.626,1.079,0.832c0.507,0.208,1.008,0.255,1.354,0.159   l0.146,0.06c-0.883,1.263-2.197,2.063-3.544,2.063c-0.42,0-0.826-0.08-1.212-0.237c-0.94-0.383-1.646-1.194-1.991-2.285   C66.345,44.863,66.31,44.062,66.445,43.253z M65.916,54.397c-1.866-0.766-3.058-2.626-3.026-4.617l2.914,1.303   c0.244,0.111,0.531-0.001,0.64-0.244c0.098-0.216,0.017-0.458-0.17-0.588l0.866-2.126c0.322,0.264,0.667,0.496,1.06,0.656   c0.388,0.157,0.799,0.237,1.216,0.271l-0.854,2.1l-0.155-0.057c-0.251-0.093-0.53,0.037-0.623,0.286   c-0.093,0.253,0.036,0.532,0.288,0.624l3.242,1.197C69.944,54.656,67.787,55.158,65.916,54.397z M86.258,40.505l-2.199,2.101   c-2.071,1.976-5.96,6.367-8.532,9.273c-1.313,1.48-2.349,2.65-2.669,2.969c-0.872,0.856-1.517,1.526-2.002,2.054   c0.288-0.863,0.736-1.844,1.438-2.888c0.042-0.063,0.069-0.136,0.078-0.21l0.035-0.274c0.097-0.015,0.188-0.052,0.262-0.123   L85.61,40.764c0.127-0.124,0.176-0.307,0.128-0.479l-0.183-0.658l0.921-1.025c0.006,0.169,0.102,0.328,0.259,0.411   c0.192,0.102,0.431,0.063,0.58-0.097l1.51-1.611C88.469,37.9,87.74,38.892,86.258,40.505z"/></g><text x="0" y="105" fill="#000000" font-size="5px" font-weight="bold" font-family="'Helvetica Neue', Helvetica, Arial-Unicode, Arial, Sans-serif">Created by Gilad Sotil</text><text x="0" y="110" fill="#000000" font-size="5px" font-weight="bold" font-family="'Helvetica Neue', Helvetica, Arial-Unicode, Arial, Sans-serif">from the Noun Project</text></svg>