<svg xmlns="http://www.w3.org/2000/svg" xmlns:xlink="http://www.w3.org/1999/xlink" version="1.1" x="0px" y="0px" viewBox="0 0 100 125" enable-background="new 0 0 100 100" xml:space="preserve"><path d="M68.412,52.085c0.208-3.236,1.682-23.464,6.433-30.427l0.514-0.753l-0.56-0.719c-0.033-0.042-3.329-4.302-5.528-9.198  l-0.332-0.738h-1.872V5.583h-7.025v4.667H57.52l-0.212,0.987c-0.306,1.423-0.723,3.021-1.247,4.696H43.096  c-0.525-1.675-0.941-3.272-1.247-4.696l-0.212-0.988h-2.221V5.583h-7.026v4.667h-2.173l-0.331,0.738  c-2.194,4.885-5.497,9.156-5.53,9.198l-0.559,0.719l0.513,0.753c4.751,6.963,6.225,27.191,6.432,30.427  c-4.388,6.242-6.538,17.72-6.629,18.215l-0.18,0.979l0.913,0.396c14.858,6.435,20.236,21.688,20.289,21.842l0.29,0.846h7.414  l0.894-0.001l0.289-0.845c0.053-0.153,5.43-15.407,20.288-21.842l0.912-0.396l-0.18-0.979  C74.951,69.805,72.801,58.327,68.412,52.085z M49.578,28.64c-1.509-1.894-2.738-3.929-3.771-5.979h7.542  C52.316,24.711,51.087,26.746,49.578,28.64z M49.759,32.304c0.476,0.799,1.037,1.537,1.67,2.206h-3.34  C48.722,33.84,49.283,33.103,49.759,32.304z M44.837,37.009h9.844c1.969,1.072,4.235,1.671,6.61,1.671  c2.212,0,4.357-0.531,6.271-1.507c-0.171,1.044-0.324,2.074-0.464,3.082H32.057c-0.149-1.075-0.314-2.176-0.498-3.291  c2.005,1.111,4.288,1.716,6.669,1.716C40.603,38.681,42.868,38.081,44.837,37.009z M65.964,51.205H33.191  c-0.051-0.743-0.13-1.798-0.244-3.08h33.259C66.094,49.407,66.015,50.462,65.964,51.205z M66.448,45.625H32.707  c-0.094-0.901-0.202-1.864-0.324-2.87h34.39C66.65,43.761,66.542,44.724,66.448,45.625z M32.673,53.705h33.809  c0.509,0.744,0.989,1.563,1.436,2.445H31.237C31.684,55.269,32.165,54.449,32.673,53.705z M69.056,58.65  c0.33,0.803,0.637,1.619,0.921,2.433H29.179c0.284-0.813,0.591-1.63,0.921-2.433H69.056z M70.789,63.583  c0.323,1.066,0.605,2.085,0.841,3H27.525c0.236-0.915,0.518-1.934,0.841-3H70.789z M62.541,8.083h2.025v2.167h-2.025V8.083z   M59.53,12.75h7.8c1.759,3.705,3.967,6.894,4.966,8.263c-1.84,3.123-3.176,7.921-4.137,12.834c-1.929,1.502-4.344,2.333-6.868,2.333  c-2.123,0-4.133-0.585-5.834-1.612v-0.059h-0.112c-1.658-1.028-2.998-2.496-3.85-4.267C56.009,24.596,58.339,17.847,59.53,12.75z   M55.196,18.434c-0.215,0.573-0.439,1.146-0.685,1.727h-9.867c-0.246-0.581-0.47-1.154-0.685-1.727H55.196z M34.891,8.083h2.026  v2.167h-2.026V8.083z M31.826,12.75h7.801c1.209,5.176,3.597,12.056,8.252,17.757c-1.794,3.456-5.506,5.674-9.651,5.674  c-2.734,0-5.307-0.958-7.3-2.688c-0.956-4.789-2.272-9.432-4.068-12.479C27.859,19.644,30.067,16.455,31.826,12.75z M43.779,85.25  h11.598c-0.564,0.902-1.063,1.764-1.489,2.556h-8.619C44.843,87.014,44.344,86.152,43.779,85.25z M42.091,82.75  c-0.75-1.042-1.589-2.106-2.522-3.178h20.017c-0.932,1.071-1.771,2.136-2.521,3.178H42.091z M47.183,91.861  c-0.159-0.398-0.384-0.932-0.669-1.556h6.128c-0.285,0.624-0.51,1.157-0.669,1.556H47.183z M61.934,77.072H37.223  c-1.162-1.132-2.436-2.239-3.831-3.288h32.372C64.369,74.833,63.095,75.94,61.934,77.072z M69.359,71.406v-0.122H29.595  c-0.906-0.523-1.84-1.027-2.828-1.488c0.044-0.207,0.097-0.45,0.156-0.713h45.31c0.059,0.263,0.112,0.506,0.156,0.713  C71.325,70.292,70.327,70.839,69.359,71.406z"/><text x="0" y="115" fill="#000000" font-size="5px" font-weight="bold" font-family="'Helvetica Neue', Helvetica, Arial-Unicode, Arial, Sans-serif">Created by Creative Mania</text><text x="0" y="120" fill="#000000" font-size="5px" font-weight="bold" font-family="'Helvetica Neue', Helvetica, Arial-Unicode, Arial, Sans-serif">from the Noun Project</text></svg>