<svg xmlns="http://www.w3.org/2000/svg" xmlns:xlink="http://www.w3.org/1999/xlink" version="1.1" x="0px" y="0px" viewBox="0 0 100 125" enable-background="new 0 0 100 100" xml:space="preserve"><path d="M85.1,42.1c-3.3-1.2-6.3-1-8.9,0.5c-2.7,1.6-4.8,4.6-6.4,9l-3.2,7.8c-0.1,0-0.3,0-0.4,0l7.8-41.8c0.6-3.2-1.6-6.3-4.8-6.9  c-3.2-0.6-6.3,1.6-6.9,4.8l-5.7,31.1l-0.2,0V11c0-3.3-2.7-6-6-6s-6,2.7-6,6v35.6l-0.2,0l-5.3-30.3c-0.6-3.2-3.7-5.4-6.9-4.8  c-3.2,0.6-5.4,3.7-4.8,6.9l5.3,29.5L32,47.9l-6.5-17.2c-0.5-1.5-1.6-2.7-3.1-3.4c-1.4-0.7-3.1-0.7-4.6-0.2c-1.5,0.5-2.7,1.6-3.4,3.1  s-0.7,3.1-0.2,4.6l9.1,22.4c-0.3,3.2-1.7,24.5,6.6,37.1c0.3,0.4,0.8,0.7,1.3,0.7c0.3,0,0.6-0.1,0.8-0.2c0.7-0.5,0.9-1.4,0.4-2.1  c-8.2-12.4-6.1-35.3-6.1-35.5c0-0.2,0-0.5-0.1-0.7l-9.2-22.7c-0.3-0.7-0.2-1.5,0.1-2.3c0.3-0.7,0.9-1.3,1.7-1.5  c0.7-0.3,1.5-0.2,2.3,0.1s1.3,0.9,1.5,1.7l7,18.5c0.3,0.7,1.1,1.1,1.8,0.9l2.9-0.9c0.7-0.2,1.2-1,1-1.7L30,17.8  c-0.1-0.8,0-1.6,0.5-2.2c0.5-0.6,1.1-1.1,1.9-1.2c1.6-0.3,3.1,0.8,3.4,2.4l5.6,31.6c0.1,0.7,0.7,1.2,1.5,1.2c0,0,0,0,0,0l3,0  c0.8,0,1.5-0.7,1.5-1.5V11c0-1.6,1.3-3,3-3s3,1.3,3,3V48c0,0.8,0.6,1.5,1.4,1.5l3,0.1c0.7,0,1.4-0.5,1.5-1.2l5.9-32.4  c0.3-1.6,1.8-2.7,3.4-2.4c1.6,0.3,2.7,1.8,2.4,3.4L63,60c-3.4,1.2-5.9,3.9-6.1,4.1c-0.6,0.6-0.5,1.6,0.1,2.1  c0.6,0.6,1.6,0.5,2.1-0.1c1.2-1.3,4.9-4.4,8-3.6c0.7,0.2,1.5-0.2,1.7-0.9l3.7-8.9c1.4-3.8,3.1-6.3,5.2-7.5c1.5-0.9,3.1-1.1,5-0.7  l-3.6,10.9L74.4,67c-6.1,16.7-13.6,25.4-13.7,25.5c-0.5,0.6-0.5,1.6,0.1,2.1c0.3,0.2,0.6,0.4,1,0.4c0.4,0,0.8-0.2,1.1-0.5  c0.3-0.4,8-9.2,14.2-26.4l4.6-11.6L86,44C86.3,43.2,85.9,42.4,85.1,42.1z"/><text x="0" y="115" fill="#000000" font-size="5px" font-weight="bold" font-family="'Helvetica Neue', Helvetica, Arial-Unicode, Arial, Sans-serif">Created by Till Teenck</text><text x="0" y="120" fill="#000000" font-size="5px" font-weight="bold" font-family="'Helvetica Neue', Helvetica, Arial-Unicode, Arial, Sans-serif">from the Noun Project</text></svg>