<?xml version="1.0" encoding="utf-8"?>
<!-- Generator: Adobe Illustrator 19.0.1, SVG Export Plug-In . SVG Version: 6.00 Build 0)  -->
<svg version="1.1" id="Layer_1" xmlns="http://www.w3.org/2000/svg" xmlns:xlink="http://www.w3.org/1999/xlink" x="0px" y="0px"
	 viewBox="-355 77 512 640" style="enable-background:new -355 77 512 640;" xml:space="preserve">
<style type="text/css">
	.st0{display:none;}
	.st1{display:inline;}
	.st2{fill:#FFFFFF;stroke:#000000;stroke-width:0.1;stroke-miterlimit:10;}
	.st3{fill:none;stroke:#000000;stroke-width:0.1;stroke-miterlimit:10;}
	.st4{fill:#233891;}
</style>
<g class="st0">
	<g class="st1">
		<rect x="-355" y="77" class="st2" width="512" height="512"/>
		<line class="st3" x1="-355" y1="573" x2="157" y2="573"/>
		<line class="st3" x1="-355" y1="557" x2="157" y2="557"/>
		<line class="st3" x1="-355" y1="541" x2="157" y2="541"/>
		<line class="st3" x1="-355" y1="525" x2="157" y2="525"/>
		<line class="st3" x1="-355" y1="509" x2="157" y2="509"/>
		<line class="st3" x1="-355" y1="493" x2="157" y2="493"/>
		<line class="st3" x1="-355" y1="477" x2="157" y2="477"/>
		<line class="st3" x1="-355" y1="461" x2="157" y2="461"/>
		<line class="st3" x1="-355" y1="445" x2="157" y2="445"/>
		<line class="st3" x1="-355" y1="429" x2="157" y2="429"/>
		<line class="st3" x1="-355" y1="413" x2="157" y2="413"/>
		<line class="st3" x1="-355" y1="397" x2="157" y2="397"/>
		<line class="st3" x1="-355" y1="381" x2="157" y2="381"/>
		<line class="st3" x1="-355" y1="365" x2="157" y2="365"/>
		<line class="st3" x1="-355" y1="349" x2="157" y2="349"/>
		<line class="st3" x1="-355" y1="333" x2="157" y2="333"/>
		<line class="st3" x1="-355" y1="317" x2="157" y2="317"/>
		<line class="st3" x1="-355" y1="301" x2="157" y2="301"/>
		<line class="st3" x1="-355" y1="285" x2="157" y2="285"/>
		<line class="st3" x1="-355" y1="269" x2="157" y2="269"/>
		<line class="st3" x1="-355" y1="253" x2="157" y2="253"/>
		<line class="st3" x1="-355" y1="237" x2="157" y2="237"/>
		<line class="st3" x1="-355" y1="221" x2="157" y2="221"/>
		<line class="st3" x1="-355" y1="205" x2="157" y2="205"/>
		<line class="st3" x1="-355" y1="189" x2="157" y2="189"/>
		<line class="st3" x1="-355" y1="173" x2="157" y2="173"/>
		<line class="st3" x1="-355" y1="157" x2="157" y2="157"/>
		<line class="st3" x1="-355" y1="141" x2="157" y2="141"/>
		<line class="st3" x1="-355" y1="125" x2="157" y2="125"/>
		<line class="st3" x1="-355" y1="109" x2="157" y2="109"/>
		<line class="st3" x1="-355" y1="93" x2="157" y2="93"/>
		<line class="st3" x1="141" y1="77" x2="141" y2="589"/>
		<line class="st3" x1="125" y1="77" x2="125" y2="589"/>
		<line class="st3" x1="109" y1="77" x2="109" y2="589"/>
		<line class="st3" x1="93" y1="77" x2="93" y2="589"/>
		<line class="st3" x1="77" y1="77" x2="77" y2="589"/>
		<line class="st3" x1="61" y1="77" x2="61" y2="589"/>
		<line class="st3" x1="45" y1="77" x2="45" y2="589"/>
		<line class="st3" x1="29" y1="77" x2="29" y2="589"/>
		<line class="st3" x1="13" y1="77" x2="13" y2="589"/>
		<line class="st3" x1="-3" y1="77" x2="-3" y2="589"/>
		<line class="st3" x1="-19" y1="77" x2="-19" y2="589"/>
		<line class="st3" x1="-35" y1="77" x2="-35" y2="589"/>
		<line class="st3" x1="-51" y1="77" x2="-51" y2="589"/>
		<line class="st3" x1="-67" y1="77" x2="-67" y2="589"/>
		<line class="st3" x1="-83" y1="77" x2="-83" y2="589"/>
		<line class="st3" x1="-99" y1="77" x2="-99" y2="589"/>
		<line class="st3" x1="-115" y1="77" x2="-115" y2="589"/>
		<line class="st3" x1="-131" y1="77" x2="-131" y2="589"/>
		<line class="st3" x1="-147" y1="77" x2="-147" y2="589"/>
		<line class="st3" x1="-163" y1="77" x2="-163" y2="589"/>
		<line class="st3" x1="-179" y1="77" x2="-179" y2="589"/>
		<line class="st3" x1="-195" y1="77" x2="-195" y2="589"/>
		<line class="st3" x1="-211" y1="77" x2="-211" y2="589"/>
		<line class="st3" x1="-227" y1="77" x2="-227" y2="589"/>
		<line class="st3" x1="-243" y1="77" x2="-243" y2="589"/>
		<line class="st3" x1="-259" y1="77" x2="-259" y2="589"/>
		<line class="st3" x1="-275" y1="77" x2="-275" y2="589"/>
		<line class="st3" x1="-291" y1="77" x2="-291" y2="589"/>
		<line class="st3" x1="-307" y1="77" x2="-307" y2="589"/>
		<line class="st3" x1="-323" y1="77" x2="-323" y2="589"/>
		<line class="st3" x1="-339" y1="77" x2="-339" y2="589"/>
	</g>
</g>
<path class="st4" d="M-348.9,340.7c4,131.9,110.2,238.1,242.1,242.1c143.6,4.4,262-114.1,257.6-257.6
	C146.8,193.3,40.6,87.1-91.3,83.1C-234.8,78.6-353.3,197.1-348.9,340.7z M-10.5,351.2c0,1.4-0.5,2.7-1.6,3.8L-99,441.9l-86.9-86.9
	c-2.1-2.2-2.1-5.6,0-7.7c2.2-2.1,5.6-2.1,7.7,0l79.2,79.2l79.3-79.2c2.2-2.1,5.6-2.1,7.7,0C-11,348.3-10.5,349.8-10.5,351.2z
	 M-10.5,247.3c0,1.4-0.5,2.7-1.6,3.8l-86.9,87l-86.9-86.9c-2.1-2.2-2.1-5.6,0-7.7c2.2-2.1,5.6-2.1,7.7,0l79.2,79.2l79.3-79.3
	c2.2-2.1,5.6-2.1,7.7,0C-11,244.5-10.5,245.9-10.5,247.3z"/>
</svg>
