<svg xmlns="http://www.w3.org/2000/svg" xmlns:xlink="http://www.w3.org/1999/xlink" version="1.1" x="0px" y="0px" viewBox="0 0 100 125" enable-background="new 0 0 100 100" xml:space="preserve"><g><path d="M98,10.857c-3,0-4.486-1.93-5.681-3.481c-1.107-1.438-1.746-2.188-3.053-2.188s-1.945,0.75-3.053,2.188   c-1.194,1.551-2.681,3.481-5.68,3.481c-2.998,0-4.483-1.93-5.678-3.481c-1.106-1.438-1.744-2.188-3.049-2.188   c-1.306,0-1.944,0.75-3.052,2.188c-1.194,1.551-2.68,3.481-5.679,3.481c-2.998,0-4.483-1.93-5.678-3.481   c-1.106-1.438-1.744-2.188-3.049-2.188c-1.304,0-1.942,0.75-3.048,2.188c-1.194,1.551-2.679,3.481-5.676,3.481   s-4.482-1.93-5.676-3.481c-1.106-1.438-1.744-2.188-3.048-2.188s-1.942,0.75-3.048,2.188c-1.193,1.551-2.679,3.481-5.676,3.481   s-4.483-1.93-5.676-3.481c-1.106-1.438-1.745-2.188-3.049-2.188c-1.305,0-1.943,0.75-3.05,2.188   c-1.194,1.551-2.68,3.481-5.677,3.481s-4.483-1.93-5.677-3.481C3.942,5.938,3.304,5.188,2,5.188V1.872   c2.998,0,4.483,1.93,5.677,3.481c1.106,1.438,1.745,2.188,3.049,2.188c1.305,0,1.943-0.75,3.049-2.188   c1.194-1.551,2.68-3.481,5.678-3.481c2.998,0,4.483,1.93,5.677,3.481c1.106,1.438,1.744,2.188,3.048,2.188s1.942-0.75,3.048-2.188   c1.193-1.551,2.679-3.481,5.676-3.481s4.483,1.931,5.677,3.481c1.106,1.438,1.744,2.188,3.047,2.188s1.941-0.75,3.047-2.188   c1.194-1.551,2.679-3.481,5.677-3.481s4.483,1.93,5.678,3.481c1.106,1.438,1.744,2.188,3.049,2.188c1.306,0,1.944-0.75,3.052-2.188   c1.194-1.551,2.68-3.481,5.679-3.481c2.998,0,4.483,1.93,5.678,3.481c1.106,1.438,1.744,2.188,3.049,2.188   c1.307,0,1.945-0.75,3.053-2.188c1.194-1.551,2.681-3.481,5.68-3.481s4.485,1.93,5.68,3.48C96.054,6.79,96.693,7.541,98,7.541   V10.857z"/><path d="M98,18.642c-3,0-4.486-1.93-5.681-3.481c-1.107-1.438-1.746-2.188-3.053-2.188s-1.945,0.75-3.053,2.188   c-1.194,1.551-2.681,3.481-5.68,3.481c-2.998,0-4.483-1.93-5.678-3.481c-1.106-1.438-1.744-2.188-3.049-2.188   c-1.306,0-1.944,0.75-3.052,2.188c-1.194,1.551-2.68,3.481-5.679,3.481c-2.998,0-4.483-1.93-5.678-3.481   c-1.106-1.438-1.744-2.188-3.049-2.188c-1.304,0-1.942,0.75-3.048,2.188c-1.194,1.551-2.679,3.481-5.676,3.481   s-4.482-1.93-5.676-3.481c-1.106-1.438-1.744-2.188-3.048-2.188s-1.942,0.75-3.048,2.188c-1.193,1.551-2.679,3.481-5.676,3.481   s-4.483-1.93-5.676-3.481c-1.106-1.438-1.745-2.188-3.049-2.188c-1.305,0-1.943,0.75-3.05,2.188   c-1.194,1.551-2.68,3.481-5.677,3.481s-4.483-1.93-5.677-3.481C3.942,13.723,3.304,12.973,2,12.973V9.657   c2.998,0,4.483,1.93,5.677,3.481c1.106,1.438,1.745,2.188,3.049,2.188c1.305,0,1.943-0.75,3.049-2.188   c1.194-1.551,2.68-3.481,5.678-3.481c2.998,0,4.483,1.93,5.677,3.481c1.106,1.438,1.744,2.188,3.048,2.188s1.942-0.75,3.048-2.188   c1.193-1.551,2.679-3.481,5.676-3.481s4.483,1.931,5.677,3.481c1.106,1.438,1.744,2.188,3.047,2.188s1.941-0.75,3.047-2.188   c1.194-1.551,2.679-3.481,5.677-3.481s4.483,1.93,5.678,3.481c1.106,1.438,1.744,2.188,3.049,2.188c1.306,0,1.944-0.75,3.052-2.188   c1.194-1.551,2.68-3.481,5.679-3.481c2.998,0,4.483,1.93,5.678,3.481c1.106,1.438,1.744,2.188,3.049,2.188   c1.307,0,1.945-0.75,3.053-2.188c1.194-1.551,2.681-3.481,5.68-3.481s4.485,1.93,5.68,3.48c1.107,1.438,1.747,2.188,3.054,2.188   V18.642z"/><path d="M98,26.427c-3,0-4.486-1.93-5.681-3.481c-1.107-1.438-1.746-2.188-3.053-2.188s-1.945,0.75-3.053,2.188   c-1.194,1.551-2.681,3.481-5.68,3.481c-2.998,0-4.483-1.93-5.678-3.481c-1.106-1.438-1.744-2.188-3.049-2.188   c-1.306,0-1.944,0.75-3.052,2.188c-1.194,1.551-2.68,3.481-5.679,3.481c-2.998,0-4.483-1.93-5.678-3.481   c-1.106-1.438-1.744-2.188-3.049-2.188c-1.304,0-1.942,0.75-3.048,2.188c-1.194,1.551-2.679,3.481-5.676,3.481   s-4.482-1.93-5.676-3.481c-1.106-1.438-1.744-2.188-3.048-2.188s-1.942,0.75-3.048,2.188c-1.193,1.551-2.679,3.481-5.676,3.481   s-4.483-1.93-5.676-3.481c-1.106-1.438-1.745-2.188-3.049-2.188c-1.305,0-1.943,0.75-3.05,2.188   c-1.194,1.551-2.68,3.481-5.677,3.481s-4.483-1.93-5.677-3.481C3.942,21.508,3.304,20.758,2,20.758v-3.316   c2.998,0,4.483,1.93,5.677,3.481c1.106,1.438,1.745,2.188,3.049,2.188c1.305,0,1.943-0.75,3.049-2.188   c1.194-1.551,2.68-3.481,5.678-3.481c2.998,0,4.483,1.93,5.677,3.481c1.106,1.438,1.744,2.188,3.048,2.188s1.942-0.75,3.048-2.188   c1.193-1.551,2.679-3.481,5.676-3.481s4.483,1.931,5.677,3.481c1.106,1.438,1.744,2.188,3.047,2.188s1.941-0.75,3.047-2.188   c1.194-1.551,2.679-3.481,5.677-3.481s4.483,1.93,5.678,3.481c1.106,1.438,1.744,2.188,3.049,2.188c1.306,0,1.944-0.75,3.052-2.188   c1.194-1.551,2.68-3.481,5.679-3.481c2.998,0,4.483,1.93,5.678,3.481c1.106,1.438,1.744,2.188,3.049,2.188   c1.307,0,1.945-0.75,3.053-2.188c1.194-1.551,2.681-3.481,5.68-3.481s4.485,1.93,5.68,3.48c1.107,1.438,1.747,2.188,3.054,2.188   V26.427z"/><path d="M98,34.211c-3,0-4.486-1.93-5.681-3.481c-1.107-1.438-1.746-2.188-3.053-2.188s-1.945,0.75-3.053,2.188   c-1.194,1.551-2.681,3.481-5.68,3.481c-2.998,0-4.483-1.93-5.678-3.481c-1.106-1.438-1.744-2.188-3.049-2.188   c-1.306,0-1.944,0.75-3.052,2.188c-1.194,1.551-2.68,3.481-5.679,3.481c-2.998,0-4.483-1.93-5.678-3.481   c-1.106-1.438-1.744-2.188-3.049-2.188c-1.304,0-1.942,0.75-3.048,2.188c-1.194,1.551-2.679,3.481-5.676,3.481   s-4.482-1.93-5.676-3.481c-1.106-1.438-1.744-2.188-3.048-2.188s-1.942,0.75-3.048,2.188c-1.193,1.551-2.679,3.481-5.676,3.481   s-4.483-1.93-5.676-3.481c-1.106-1.438-1.745-2.188-3.049-2.188c-1.305,0-1.943,0.75-3.05,2.188   c-1.194,1.551-2.68,3.481-5.677,3.481s-4.483-1.93-5.677-3.481C3.942,29.292,3.304,28.542,2,28.542v-3.316   c2.998,0,4.483,1.93,5.677,3.481c1.106,1.438,1.745,2.188,3.049,2.188c1.305,0,1.943-0.75,3.049-2.188   c1.194-1.551,2.68-3.481,5.678-3.481c2.998,0,4.483,1.93,5.677,3.481c1.106,1.438,1.744,2.188,3.048,2.188s1.942-0.75,3.048-2.188   c1.193-1.551,2.679-3.481,5.676-3.481s4.483,1.931,5.677,3.481c1.106,1.438,1.744,2.188,3.047,2.188s1.941-0.75,3.047-2.188   c1.194-1.551,2.679-3.481,5.677-3.481s4.483,1.93,5.678,3.481c1.106,1.438,1.744,2.188,3.049,2.188c1.306,0,1.944-0.75,3.052-2.188   c1.194-1.551,2.68-3.481,5.679-3.481c2.998,0,4.483,1.93,5.678,3.481c1.106,1.438,1.744,2.188,3.049,2.188   c1.307,0,1.945-0.75,3.053-2.188c1.194-1.551,2.681-3.481,5.68-3.481s4.485,1.93,5.68,3.48c1.107,1.438,1.747,2.188,3.054,2.188   V34.211z"/><path d="M98,41.997c-3,0-4.486-1.93-5.681-3.481c-1.107-1.438-1.746-2.188-3.053-2.188s-1.945,0.75-3.053,2.188   c-1.194,1.551-2.681,3.481-5.68,3.481c-2.998,0-4.483-1.93-5.678-3.481c-1.106-1.438-1.744-2.188-3.049-2.188   c-1.306,0-1.944,0.75-3.052,2.188c-1.194,1.551-2.68,3.481-5.679,3.481c-2.998,0-4.483-1.93-5.678-3.481   c-1.106-1.438-1.744-2.188-3.049-2.188c-1.304,0-1.942,0.75-3.048,2.188c-1.194,1.551-2.679,3.481-5.676,3.481   s-4.482-1.93-5.676-3.481c-1.106-1.438-1.744-2.188-3.048-2.188s-1.942,0.75-3.048,2.188c-1.193,1.551-2.679,3.481-5.676,3.481   s-4.483-1.93-5.676-3.481c-1.106-1.438-1.745-2.188-3.049-2.188c-1.305,0-1.943,0.75-3.05,2.188   c-1.194,1.551-2.68,3.481-5.677,3.481s-4.483-1.93-5.677-3.481C3.942,37.078,3.304,36.328,2,36.328v-3.316   c2.998,0,4.483,1.93,5.677,3.481c1.106,1.438,1.745,2.188,3.049,2.188c1.305,0,1.943-0.75,3.049-2.188   c1.194-1.551,2.68-3.481,5.678-3.481c2.998,0,4.483,1.93,5.677,3.481c1.106,1.438,1.744,2.188,3.048,2.188s1.942-0.75,3.048-2.188   c1.193-1.551,2.679-3.481,5.676-3.481s4.483,1.931,5.677,3.481c1.106,1.438,1.744,2.188,3.047,2.188s1.941-0.75,3.047-2.188   c1.194-1.551,2.679-3.481,5.677-3.481s4.483,1.93,5.678,3.481c1.106,1.438,1.744,2.188,3.049,2.188c1.306,0,1.944-0.75,3.052-2.188   c1.194-1.551,2.68-3.481,5.679-3.481c2.998,0,4.483,1.93,5.678,3.481c1.106,1.438,1.744,2.188,3.049,2.188   c1.307,0,1.945-0.75,3.053-2.188c1.194-1.551,2.681-3.481,5.68-3.481s4.485,1.93,5.68,3.48C96.054,37.93,96.693,38.68,98,38.68   V41.997z"/><path d="M98,49.782c-3,0-4.486-1.93-5.681-3.481c-1.107-1.438-1.746-2.188-3.053-2.188s-1.945,0.75-3.053,2.188   c-1.194,1.551-2.681,3.481-5.68,3.481c-2.998,0-4.483-1.93-5.678-3.481c-1.106-1.438-1.744-2.188-3.049-2.188   c-1.306,0-1.944,0.75-3.052,2.188c-1.194,1.551-2.68,3.481-5.679,3.481c-2.998,0-4.483-1.93-5.678-3.481   c-1.106-1.438-1.744-2.188-3.049-2.188c-1.304,0-1.942,0.75-3.048,2.188c-1.194,1.551-2.679,3.481-5.676,3.481   s-4.482-1.93-5.676-3.481c-1.106-1.438-1.744-2.188-3.048-2.188s-1.942,0.75-3.048,2.188c-1.193,1.551-2.679,3.481-5.676,3.481   s-4.483-1.93-5.676-3.481c-1.106-1.438-1.745-2.188-3.049-2.188c-1.305,0-1.943,0.75-3.05,2.188   c-1.194,1.551-2.68,3.481-5.677,3.481s-4.483-1.93-5.677-3.481C3.942,44.863,3.304,44.113,2,44.113v-3.316   c2.998,0,4.483,1.93,5.677,3.481c1.106,1.438,1.745,2.188,3.049,2.188c1.305,0,1.943-0.75,3.049-2.188   c1.194-1.551,2.68-3.481,5.678-3.481c2.998,0,4.483,1.93,5.677,3.481c1.106,1.438,1.744,2.188,3.048,2.188s1.942-0.75,3.048-2.188   c1.193-1.551,2.679-3.481,5.676-3.481s4.483,1.931,5.677,3.481c1.106,1.438,1.744,2.188,3.047,2.188s1.941-0.75,3.047-2.188   c1.194-1.551,2.679-3.481,5.677-3.481s4.483,1.93,5.678,3.481c1.106,1.438,1.744,2.188,3.049,2.188c1.306,0,1.944-0.75,3.052-2.188   c1.194-1.551,2.68-3.481,5.679-3.481c2.998,0,4.483,1.93,5.678,3.481c1.106,1.438,1.744,2.188,3.049,2.188   c1.307,0,1.945-0.75,3.053-2.188c1.194-1.551,2.681-3.481,5.68-3.481s4.485,1.93,5.68,3.48c1.107,1.438,1.747,2.188,3.054,2.188   V49.782z"/><path d="M98,57.567c-3,0-4.486-1.931-5.681-3.481c-1.107-1.438-1.746-2.188-3.053-2.188s-1.945,0.75-3.053,2.188   c-1.194,1.551-2.681,3.481-5.68,3.481c-2.998,0-4.483-1.931-5.678-3.481c-1.106-1.438-1.744-2.188-3.049-2.188   c-1.306,0-1.944,0.75-3.052,2.188c-1.193,1.551-2.68,3.481-5.679,3.481c-2.998,0-4.483-1.931-5.678-3.481   c-1.106-1.438-1.744-2.188-3.049-2.188c-1.304,0-1.942,0.75-3.048,2.188c-1.194,1.551-2.679,3.481-5.676,3.481   s-4.482-1.931-5.676-3.481c-1.106-1.438-1.744-2.188-3.048-2.188s-1.942,0.75-3.048,2.188c-1.194,1.551-2.679,3.481-5.677,3.481   s-4.483-1.931-5.676-3.481c-1.106-1.438-1.745-2.188-3.049-2.188c-1.305,0-1.943,0.75-3.05,2.188   c-1.194,1.551-2.679,3.481-5.677,3.481c-2.998,0-4.483-1.931-5.677-3.481C3.942,52.648,3.304,51.898,2,51.898v-3.317   c2.998,0,4.483,1.931,5.677,3.482c1.106,1.438,1.745,2.188,3.049,2.188c1.305,0,1.943-0.75,3.049-2.188   c1.194-1.551,2.68-3.482,5.678-3.482c2.998,0,4.483,1.931,5.677,3.482c1.106,1.438,1.744,2.188,3.048,2.188s1.942-0.75,3.048-2.188   c1.193-1.551,2.679-3.482,5.676-3.482s4.483,1.931,5.677,3.482c1.106,1.438,1.744,2.188,3.047,2.188s1.941-0.75,3.047-2.188   c1.194-1.551,2.679-3.482,5.677-3.482s4.483,1.931,5.678,3.482c1.106,1.438,1.744,2.188,3.049,2.188   c1.306,0,1.944-0.75,3.052-2.188c1.193-1.551,2.68-3.481,5.679-3.481c2.998,0,4.483,1.931,5.678,3.482   c1.106,1.438,1.744,2.188,3.049,2.188c1.307,0,1.945-0.75,3.053-2.188c1.194-1.551,2.681-3.481,5.68-3.481s4.485,1.93,5.68,3.481   c1.107,1.438,1.747,2.188,3.054,2.188V57.567z"/><path d="M98,65.353c-3,0-4.486-1.931-5.681-3.481c-1.107-1.438-1.746-2.188-3.053-2.188s-1.945,0.75-3.053,2.188   c-1.194,1.551-2.681,3.481-5.68,3.481c-2.998,0-4.483-1.931-5.678-3.481c-1.106-1.438-1.744-2.188-3.049-2.188   c-1.306,0-1.944,0.75-3.052,2.188c-1.193,1.551-2.68,3.481-5.679,3.481c-2.998,0-4.483-1.931-5.678-3.481   c-1.106-1.438-1.744-2.188-3.049-2.188c-1.304,0-1.942,0.75-3.048,2.188c-1.194,1.551-2.679,3.481-5.676,3.481   s-4.482-1.931-5.676-3.481c-1.106-1.438-1.744-2.188-3.048-2.188s-1.942,0.75-3.048,2.188c-1.194,1.552-2.679,3.482-5.677,3.482   s-4.483-1.931-5.676-3.481c-1.106-1.438-1.745-2.188-3.049-2.188c-1.305,0-1.943,0.75-3.05,2.188   c-1.194,1.551-2.679,3.481-5.677,3.481c-2.998,0-4.483-1.931-5.677-3.481C3.942,60.433,3.304,59.683,2,59.683v-3.316   c2.998,0,4.483,1.931,5.677,3.481c1.106,1.438,1.745,2.188,3.049,2.188c1.305,0,1.943-0.75,3.049-2.188   c1.194-1.552,2.68-3.482,5.678-3.482s4.483,1.931,5.677,3.482c1.106,1.438,1.744,2.188,3.048,2.188s1.942-0.75,3.048-2.188   c1.194-1.552,2.679-3.482,5.677-3.482s4.483,1.931,5.677,3.482c1.106,1.438,1.744,2.188,3.047,2.188s1.941-0.75,3.047-2.188   c1.194-1.552,2.679-3.482,5.677-3.482s4.483,1.931,5.678,3.481c1.106,1.438,1.744,2.188,3.049,2.188   c1.306,0,1.944-0.75,3.052-2.188c1.193-1.551,2.68-3.481,5.679-3.481c2.998,0,4.483,1.931,5.678,3.481   c1.106,1.438,1.744,2.188,3.049,2.188c1.307,0,1.945-0.75,3.053-2.188c1.194-1.551,2.681-3.481,5.68-3.481s4.485,1.931,5.68,3.481   c1.107,1.438,1.747,2.188,3.054,2.188V65.353z"/><path d="M98,73.137c-3,0-4.486-1.931-5.681-3.481c-1.107-1.438-1.746-2.188-3.053-2.188s-1.945,0.75-3.053,2.188   c-1.194,1.551-2.681,3.481-5.68,3.481c-2.998,0-4.483-1.931-5.678-3.481c-1.106-1.438-1.744-2.188-3.049-2.188   c-1.306,0-1.944,0.75-3.052,2.188c-1.193,1.551-2.68,3.481-5.679,3.481c-2.998,0-4.483-1.931-5.678-3.481   c-1.106-1.438-1.744-2.188-3.049-2.188c-1.304,0-1.942,0.75-3.048,2.188c-1.194,1.551-2.679,3.481-5.676,3.481   s-4.482-1.931-5.676-3.481c-1.106-1.438-1.744-2.188-3.048-2.188s-1.942,0.75-3.048,2.188c-1.194,1.552-2.679,3.482-5.677,3.482   s-4.483-1.931-5.676-3.481c-1.106-1.438-1.745-2.188-3.049-2.188c-1.305,0-1.943,0.75-3.05,2.188   c-1.194,1.551-2.679,3.481-5.677,3.481c-2.998,0-4.483-1.931-5.677-3.481C3.942,68.217,3.304,67.467,2,67.467V64.15   c2.998,0,4.483,1.931,5.677,3.481c1.106,1.438,1.745,2.188,3.049,2.188c1.305,0,1.943-0.75,3.049-2.188   c1.194-1.552,2.68-3.482,5.678-3.482s4.483,1.931,5.677,3.482c1.106,1.438,1.744,2.188,3.048,2.188s1.942-0.75,3.048-2.188   c1.194-1.552,2.679-3.482,5.677-3.482s4.483,1.931,5.677,3.482c1.106,1.438,1.744,2.188,3.047,2.188s1.941-0.75,3.047-2.188   c1.194-1.552,2.679-3.482,5.677-3.482s4.483,1.931,5.678,3.481c1.106,1.438,1.744,2.188,3.049,2.188   c1.306,0,1.944-0.75,3.052-2.188c1.193-1.551,2.68-3.481,5.679-3.481c2.998,0,4.483,1.931,5.678,3.481   c1.106,1.438,1.744,2.188,3.049,2.188c1.307,0,1.945-0.75,3.053-2.188c1.194-1.551,2.681-3.481,5.68-3.481s4.485,1.931,5.68,3.481   c1.107,1.438,1.747,2.188,3.054,2.188V73.137z"/><path d="M98,80.924c-3,0-4.486-1.931-5.681-3.481c-1.107-1.438-1.746-2.188-3.053-2.188s-1.945,0.75-3.053,2.188   c-1.194,1.551-2.681,3.481-5.68,3.481c-2.998,0-4.483-1.931-5.678-3.481c-1.106-1.438-1.744-2.188-3.049-2.188   c-1.306,0-1.944,0.75-3.052,2.188c-1.193,1.551-2.68,3.481-5.679,3.481c-2.998,0-4.483-1.931-5.678-3.481   c-1.106-1.438-1.744-2.188-3.049-2.188c-1.304,0-1.942,0.75-3.048,2.188c-1.194,1.551-2.679,3.481-5.676,3.481   s-4.482-1.931-5.676-3.481c-1.106-1.438-1.744-2.188-3.048-2.188s-1.942,0.75-3.048,2.188c-1.194,1.552-2.679,3.482-5.677,3.482   s-4.483-1.931-5.676-3.481c-1.106-1.438-1.745-2.188-3.049-2.188c-1.305,0-1.943,0.75-3.05,2.188   c-1.194,1.551-2.679,3.481-5.677,3.481c-2.998,0-4.483-1.931-5.677-3.481C3.942,76.004,3.304,75.254,2,75.254v-3.316   c2.998,0,4.483,1.931,5.677,3.481c1.106,1.438,1.745,2.188,3.049,2.188c1.305,0,1.943-0.75,3.049-2.188   c1.194-1.552,2.68-3.482,5.678-3.482s4.483,1.931,5.677,3.482c1.106,1.438,1.744,2.188,3.048,2.188s1.942-0.75,3.048-2.188   c1.194-1.552,2.679-3.482,5.677-3.482s4.483,1.931,5.677,3.482c1.106,1.438,1.744,2.188,3.047,2.188s1.941-0.75,3.047-2.188   c1.194-1.552,2.679-3.482,5.677-3.482s4.483,1.931,5.678,3.481c1.106,1.438,1.744,2.188,3.049,2.188   c1.306,0,1.944-0.75,3.052-2.188c1.193-1.551,2.68-3.481,5.679-3.481c2.998,0,4.483,1.931,5.678,3.481   c1.106,1.438,1.744,2.188,3.049,2.188c1.307,0,1.945-0.75,3.053-2.188c1.194-1.551,2.681-3.481,5.68-3.481s4.485,1.931,5.68,3.481   c1.107,1.438,1.747,2.188,3.054,2.188V80.924z"/><path d="M98,88.709c-3,0-4.486-1.931-5.681-3.481c-1.107-1.438-1.746-2.188-3.053-2.188s-1.945,0.75-3.053,2.188   c-1.194,1.551-2.681,3.481-5.68,3.481c-2.998,0-4.483-1.931-5.678-3.481c-1.106-1.438-1.744-2.188-3.049-2.188   c-1.306,0-1.944,0.75-3.052,2.188c-1.193,1.551-2.68,3.481-5.679,3.481c-2.998,0-4.483-1.931-5.678-3.481   c-1.106-1.438-1.744-2.188-3.049-2.188c-1.304,0-1.942,0.75-3.048,2.188c-1.194,1.551-2.679,3.481-5.676,3.481   s-4.482-1.931-5.676-3.481c-1.106-1.438-1.744-2.188-3.048-2.188s-1.942,0.75-3.048,2.188c-1.194,1.552-2.679,3.482-5.677,3.482   s-4.483-1.931-5.676-3.481c-1.106-1.438-1.745-2.188-3.049-2.188c-1.305,0-1.943,0.75-3.05,2.188   c-1.194,1.551-2.679,3.481-5.677,3.481c-2.998,0-4.483-1.931-5.677-3.481C3.942,83.789,3.304,83.039,2,83.039v-3.316   c2.998,0,4.483,1.931,5.677,3.481c1.106,1.438,1.745,2.188,3.049,2.188c1.305,0,1.943-0.75,3.049-2.188   c1.194-1.552,2.68-3.482,5.678-3.482s4.483,1.931,5.677,3.482c1.106,1.438,1.744,2.188,3.048,2.188s1.942-0.75,3.048-2.188   c1.194-1.552,2.679-3.482,5.677-3.482s4.483,1.931,5.677,3.482c1.106,1.438,1.744,2.188,3.047,2.188s1.941-0.75,3.047-2.188   c1.194-1.552,2.679-3.482,5.677-3.482s4.483,1.931,5.678,3.481c1.106,1.438,1.744,2.188,3.049,2.188   c1.306,0,1.944-0.75,3.052-2.188c1.193-1.551,2.68-3.481,5.679-3.481c2.998,0,4.483,1.931,5.678,3.481   c1.106,1.438,1.744,2.188,3.049,2.188c1.307,0,1.945-0.75,3.053-2.188c1.194-1.551,2.681-3.481,5.68-3.481s4.485,1.931,5.68,3.481   c1.107,1.438,1.747,2.188,3.054,2.188V88.709z"/><path d="M98,96.493c-3,0-4.486-1.931-5.681-3.481c-1.107-1.438-1.746-2.188-3.053-2.188s-1.945,0.75-3.053,2.188   c-1.194,1.551-2.681,3.481-5.68,3.481c-2.998,0-4.483-1.931-5.678-3.481c-1.106-1.438-1.744-2.188-3.049-2.188   c-1.306,0-1.944,0.75-3.052,2.188c-1.193,1.551-2.68,3.481-5.679,3.481c-2.998,0-4.483-1.931-5.678-3.481   c-1.106-1.438-1.744-2.188-3.049-2.188c-1.304,0-1.942,0.75-3.048,2.188c-1.194,1.551-2.679,3.481-5.676,3.481   s-4.482-1.931-5.676-3.481c-1.106-1.438-1.744-2.188-3.048-2.188s-1.942,0.75-3.048,2.188c-1.194,1.552-2.679,3.482-5.677,3.482   s-4.483-1.931-5.676-3.481c-1.106-1.438-1.745-2.188-3.049-2.188c-1.305,0-1.943,0.75-3.05,2.188   c-1.194,1.551-2.679,3.481-5.677,3.481c-2.998,0-4.483-1.931-5.677-3.481C3.942,91.573,3.304,90.823,2,90.823v-3.316   c2.998,0,4.483,1.931,5.677,3.481c1.106,1.438,1.745,2.188,3.049,2.188c1.305,0,1.943-0.75,3.049-2.188   c1.194-1.552,2.68-3.482,5.678-3.482s4.483,1.931,5.677,3.482c1.106,1.438,1.744,2.188,3.048,2.188s1.942-0.75,3.048-2.188   c1.194-1.552,2.679-3.482,5.677-3.482s4.483,1.931,5.677,3.482c1.106,1.438,1.744,2.188,3.047,2.188s1.941-0.75,3.047-2.188   c1.194-1.552,2.679-3.482,5.677-3.482s4.483,1.931,5.678,3.481c1.106,1.438,1.744,2.188,3.049,2.188   c1.306,0,1.944-0.75,3.052-2.188c1.193-1.551,2.68-3.481,5.679-3.481c2.998,0,4.483,1.931,5.678,3.481   c1.106,1.438,1.744,2.188,3.049,2.188c1.307,0,1.945-0.75,3.053-2.188c1.194-1.551,2.681-3.481,5.68-3.481s4.485,1.931,5.68,3.481   c1.107,1.438,1.747,2.188,3.054,2.188V96.493z"/></g><text x="0" y="115" fill="#000000" font-size="5px" font-weight="bold" font-family="'Helvetica Neue', Helvetica, Arial-Unicode, Arial, Sans-serif">Created by Eliricon</text><text x="0" y="120" fill="#000000" font-size="5px" font-weight="bold" font-family="'Helvetica Neue', Helvetica, Arial-Unicode, Arial, Sans-serif">from the Noun Project</text></svg>